<svg xmlns="http://www.w3.org/2000/svg" viewBox="0 0 140 340" fill="none" stroke="#ffffff" stroke-width="0.75" stroke-linecap="round" stroke-linejoin="round">
  <!-- Tall frosted bottle -->
  <path d="M45 310 L45 95 Q45 88 52 88 L88 88 Q95 88 95 95 L95 310"/>
  <path d="M48 130 L92 130 M48 180 L92 180 M48 230 L92 230" opacity="0.35"/>
  <ellipse cx="70" cy="310" rx="25" ry="4" opacity="0.4"/>
  <ellipse cx="70" cy="88" rx="23" ry="5"/>
  <rect x="42" y="72" width="56" height="18" rx="2"/>
  <rect x="58" y="48" width="24" height="26" rx="2"/>
  <path d="M62 48 L62 38 Q70 32 78 38 L78 48"/>
  <circle cx="70" cy="34" r="4"/>
  <path d="M55 55 L55 60 M65 52 L65 58 M75 52 L75 58 M85 55 L85 60" opacity="0.5"/>
  <text x="70" y="165" text-anchor="middle" fill="#ffffff" stroke="none" font-family="Georgia,serif" font-size="18" font-style="italic" opacity="0.55">Jin</text>
  <text x="70" y="268" text-anchor="middle" fill="#ffffff" stroke="none" font-family="sans-serif" font-size="6" opacity="0.45">pH balanced</text>
  <text x="70" y="278" text-anchor="middle" fill="#ffffff" stroke="none" font-family="sans-serif" font-size="6" opacity="0.45">moisturizing spray</text>
  <text x="70" y="288" text-anchor="middle" fill="#ffffff" stroke="none" font-family="sans-serif" font-size="5.5" opacity="0.35">100ml / 4.0 fl. oz.</text>
</svg>
